<svg xmlns="http://www.w3.org/2000/svg" xmlns:v="https://svgstorm.com"
viewBox = "0 0 642 388"
width="642"
height="388">
<g fill="None" fill-opacity="0.0" stroke="#000000" stroke-opacity="0.00" stroke-width="0.3"><path d="
M 0.00 388.00 
L 642.00 388.00
L 642.00 0.00
L 0.00 0.00
L 0.00 388.00
M 400.00 71.00 
C 400.00 108.00 400.00 145.00 400.00 182.00 C 407.90 215.87 377.75 245.28 344.00 237.00 C 307.00 237.00 270.00 237.00 233.00 237.00
C 233.00 209.33 233.00 181.67 233.00 154.00 C 235.39 130.04 225.65 100.92 244.75 82.75 C 262.66 63.17 292.12 73.65 316.00 71.00 C 344.00 71.00 372.00 71.00 400.00 71.00
M 101.00 260.00 
C 104.68 272.09 110.13 283.63 113.00 296.00
C 117.54 284.41 121.75 271.99 126.00 260.00
C 131.33 260.00 136.67 260.00 142.00 260.00
C 136.34 276.87 127.60 296.24 122.00 314.00
C 116.33 314.00 110.67 314.00 105.00 314.00
C 98.99 296.13 91.61 278.68 85.00 261.00
C 89.85 258.85 95.73 260.54 101.00 260.00
M 195.00 260.00 
C 202.25 278.49 177.53 270.32 167.00 272.00
C 167.00 275.67 167.00 279.33 167.00 283.00
C 174.33 283.00 181.67 283.00 189.00 283.00
C 189.00 287.00 189.00 291.00 189.00 295.00
C 181.67 295.00 174.33 295.00 167.00 295.00
C 167.00 301.33 167.00 307.67 167.00 314.00
C 162.00 314.00 157.00 314.00 152.00 314.00
C 152.00 303.33 152.00 292.67 152.00 282.00 C 153.10 273.35 147.13 255.88 162.00 260.00 C 173.00 260.00 184.00 260.00 195.00 260.00
M 274.00 262.00 
C 287.68 258.12 292.36 292.06 277.00 297.00
C 279.46 303.00 284.57 307.60 286.00 314.00
C 272.60 317.07 266.72 310.03 263.00 299.00
C 259.67 299.00 256.33 299.00 253.00 299.00
C 253.00 304.00 253.00 309.00 253.00 314.00
C 248.00 314.00 243.00 314.00 238.00 314.00
C 235.69 304.91 237.65 293.84 237.00 284.00 C 239.20 276.37 231.25 258.43 244.00 260.00 C 253.52 261.29 266.90 257.38 274.00 262.00
M 424.00 274.00 
C 431.18 272.48 440.47 269.63 446.75 275.25 C 453.41 286.35 455.85 311.07 439.98 313.98 C 430.32 314.03 420.66 313.98 411.00 314.00 C 406.87 298.20 409.28 277.73 409.78 260.78 C 420.38 256.19 427.28 262.95 424.00 274.00
M 369.00 261.00 
C 369.00 265.00 369.00 269.00 369.00 273.00
C 377.54 272.61 390.97 268.69 394.92 279.08 C 396.21 288.70 397.83 300.67 393.69 309.69 C 387.15 316.69 375.75 313.12 366.00 314.00 C 350.09 318.64 355.96 300.39 355.00 291.00 C 354.43 280.67 355.85 270.30 354.00 261.00
C 359.00 261.00 364.00 261.00 369.00 261.00
M 309.00 272.00 
C 318.98 273.54 334.58 267.82 340.30 279.70 C 340.03 290.99 345.83 308.95 333.75 313.75 C 322.39 315.69 304.58 318.46 299.03 305.97 C 297.72 294.67 293.92 275.18 309.00 272.00
M 464.00 304.00 
C 462.36 297.74 462.31 288.19 464.00 282.00
C 466.01 268.37 482.88 272.55 493.00 272.00 C 506.68 273.48 504.01 289.64 504.00 300.00
C 495.33 300.00 486.67 300.00 478.00 300.00
C 480.73 309.15 494.56 300.48 502.00 303.00
C 506.39 317.15 490.97 314.27 482.00 315.00 C 473.17 315.69 464.97 314.46 464.00 304.00
M 548.00 272.00 
C 547.05 276.05 550.16 282.66 545.92 284.92 C 540.95 284.54 536.54 285.77 532.00 287.00
C 532.00 296.00 532.00 305.00 532.00 314.00
C 527.00 314.00 522.00 314.00 517.00 314.00
C 517.00 300.33 517.00 286.67 517.00 273.00
C 521.65 274.04 530.55 270.06 531.00 277.00
C 536.79 273.18 541.30 272.24 548.00 272.00 Z"/>
</g>
<g fill="None" fill-opacity="0.0" stroke="#9F2022" stroke-opacity="0.96" stroke-width="0.3"><path d="
M 400.00 71.00 
C 372.00 71.00 344.00 71.00 316.00 71.00 C 292.12 73.65 262.66 63.17 244.75 82.75 C 225.65 100.92 235.39 130.04 233.00 154.00 C 233.00 181.67 233.00 209.33 233.00 237.00
C 270.00 237.00 307.00 237.00 344.00 237.00 C 377.75 245.28 407.90 215.87 400.00 182.00 C 400.00 145.00 400.00 108.00 400.00 71.00
M 287.00 122.00 
C 288.39 122.74 288.65 126.32 287.00 127.00
C 286.47 131.32 288.19 135.00 289.00 139.00
C 306.00 135.88 325.31 136.34 341.08 142.92 C 352.64 155.90 349.89 176.11 347.01 192.01 C 340.73 210.28 316.83 205.91 301.00 207.00 C 283.75 207.71 265.47 200.21 267.00 180.00
C 265.90 179.97 266.19 178.66 266.00 178.00
C 264.41 174.40 264.29 167.53 266.00 164.00
C 266.22 163.70 266.90 163.26 267.00 163.00
C 268.16 154.05 270.47 142.13 281.00 140.00
C 271.37 120.17 287.23 100.61 308.00 102.00 C 317.61 101.50 325.29 108.22 327.97 117.03 C 323.40 129.92 317.84 108.63 309.98 110.02 C 301.43 110.10 289.29 112.52 287.00 122.00
M 346.00 102.00 
C 352.79 105.78 345.15 116.95 339.99 117.99 C 333.10 114.80 340.60 103.58 346.00 102.00
M 357.00 116.00 
C 365.16 121.37 352.95 127.51 347.93 128.93 C 339.31 124.01 351.51 116.93 357.00 116.00
M 365.00 133.00 
C 371.48 140.85 357.71 142.33 352.33 140.67 C 344.52 132.21 359.24 132.17 365.00 133.00 Z"/>
</g>
<g fill="None" fill-opacity="0.0" stroke="#000000" stroke-opacity="0.00" stroke-width="0.3"><path d="
M 267.00 163.00 
C 266.44 165.52 268.19 169.30 266.00 171.00
C 266.00 171.50 266.00 172.50 266.00 173.00
C 267.96 174.45 266.56 177.80 267.00 180.00
C 265.47 200.21 283.75 207.71 301.00 207.00 C 316.83 205.91 340.73 210.28 347.01 192.01 C 349.89 176.11 352.64 155.90 341.08 142.92 C 325.31 136.34 306.00 135.88 289.00 139.00
C 288.19 135.00 286.47 131.32 287.00 127.00
C 285.61 126.26 285.35 122.68 287.00 122.00
C 289.29 112.52 301.43 110.10 309.98 110.02 C 317.84 108.63 323.40 129.92 327.97 117.03 C 325.29 108.22 317.61 101.50 308.00 102.00 C 287.23 100.61 271.37 120.17 281.00 140.00
C 270.47 142.13 268.16 154.05 267.00 163.00
M 313.00 176.00 
C 316.79 184.03 306.37 193.68 303.08 182.92 C 305.03 174.84 294.60 171.02 298.00 163.00 C 305.88 145.16 329.54 167.71 313.00 176.00 Z"/>
</g>
<g fill="None" fill-opacity="0.0" stroke="#000000" stroke-opacity="0.00" stroke-width="0.3"><path d="
M 346.00 102.00 
C 340.60 103.58 333.10 114.80 339.99 117.99 C 345.15 116.95 352.79 105.78 346.00 102.00 Z"/>
</g>
<g fill="None" fill-opacity="0.0" stroke="#000000" stroke-opacity="0.00" stroke-width="0.3"><path d="
M 357.00 116.00 
C 351.51 116.93 339.31 124.01 347.93 128.93 C 352.95 127.51 365.16 121.37 357.00 116.00 Z"/>
</g>
<g fill="None" fill-opacity="0.0" stroke="#902328" stroke-opacity="0.39" stroke-width="0.3"><path d="
M 287.00 127.00 
C 288.65 126.32 288.39 122.74 287.00 122.00
C 285.35 122.68 285.61 126.26 287.00 127.00 Z"/>
</g>
<g fill="None" fill-opacity="0.0" stroke="#000000" stroke-opacity="0.00" stroke-width="0.3"><path d="
M 365.00 133.00 
C 359.24 132.17 344.52 132.21 352.33 140.67 C 357.71 142.33 371.48 140.85 365.00 133.00 Z"/>
</g>
<g fill="None" fill-opacity="0.0" stroke="#991F22" stroke-opacity="0.87" stroke-width="0.3"><path d="
M 313.00 176.00 
C 329.54 167.71 305.88 145.16 298.00 163.00 C 294.60 171.02 305.03 174.84 303.08 182.92 C 306.37 193.68 316.79 184.03 313.00 176.00 Z"/>
</g>
<g fill="None" fill-opacity="0.0" stroke="#DEB0B0" stroke-opacity="0.15" stroke-width="0.3"><path d="
M 266.00 164.00 
C 266.00 166.33 266.00 168.67 266.00 171.00
C 268.19 169.30 266.44 165.52 267.00 163.00
C 266.90 163.26 266.22 163.70 266.00 164.00 Z"/>
</g>
<g fill="None" fill-opacity="0.0" stroke="#812221" stroke-opacity="0.80" stroke-width="0.3"><path d="
M 266.00 178.00 
C 266.00 176.33 266.00 174.67 266.00 173.00
C 266.00 172.50 266.00 171.50 266.00 171.00
C 266.00 168.67 266.00 166.33 266.00 164.00
C 264.29 167.53 264.41 174.40 266.00 178.00 Z"/>
</g>
<g fill="None" fill-opacity="0.0" stroke="#EEBFC4" stroke-opacity="0.12" stroke-width="0.3"><path d="
M 266.00 178.00 
C 266.19 178.66 265.90 179.97 267.00 180.00
C 266.56 177.80 267.96 174.45 266.00 173.00
C 266.00 174.67 266.00 176.33 266.00 178.00 Z"/>
</g>
<g fill="None" fill-opacity="0.0" stroke="#262626" stroke-opacity="0.89" stroke-width="0.3"><path d="
M 101.00 260.00 
C 95.73 260.54 89.85 258.85 85.00 261.00
C 91.61 278.68 98.99 296.13 105.00 314.00
C 110.67 314.00 116.33 314.00 122.00 314.00
C 127.60 296.24 136.34 276.87 142.00 260.00
C 136.67 260.00 131.33 260.00 126.00 260.00
C 121.75 271.99 117.54 284.41 113.00 296.00
C 110.13 283.63 104.68 272.09 101.00 260.00 Z"/>
</g>
<g fill="None" fill-opacity="0.0" stroke="#262626" stroke-opacity="0.89" stroke-width="0.3"><path d="
M 195.00 260.00 
C 184.00 260.00 173.00 260.00 162.00 260.00 C 147.13 255.88 153.10 273.35 152.00 282.00 C 152.00 292.67 152.00 303.33 152.00 314.00
C 157.00 314.00 162.00 314.00 167.00 314.00
C 167.00 307.67 167.00 301.33 167.00 295.00
C 174.33 295.00 181.67 295.00 189.00 295.00
C 189.00 291.00 189.00 287.00 189.00 283.00
C 181.67 283.00 174.33 283.00 167.00 283.00
C 167.00 279.33 167.00 275.67 167.00 272.00
C 177.53 270.32 202.25 278.49 195.00 260.00 Z"/>
</g>
<g fill="None" fill-opacity="0.0" stroke="#212121" stroke-opacity="0.15" stroke-width="0.3"><path d="
M 238.00 314.00 
C 237.96 314.00 238.00 313.00 238.00 313.00
C 238.67 295.83 236.67 277.34 239.00 261.00
C 250.64 261.47 262.76 259.93 274.00 262.00
C 266.90 257.38 253.52 261.29 244.00 260.00 C 231.25 258.43 239.20 276.37 237.00 284.00 C 237.65 293.84 235.69 304.91 238.00 314.00 Z"/>
</g>
<g fill="None" fill-opacity="0.0" stroke="#262626" stroke-opacity="0.89" stroke-width="0.3"><path d="
M 424.00 274.00 
C 427.28 262.95 420.38 256.19 409.78 260.78 C 409.28 277.73 406.87 298.20 411.00 314.00 C 420.66 313.98 430.32 314.03 439.98 313.98 C 455.85 311.07 453.41 286.35 446.75 275.25 C 440.47 269.63 431.18 272.48 424.00 274.00
M 436.00 284.00 
C 436.55 293.75 438.37 307.54 424.00 303.00
C 424.00 296.67 424.00 290.33 424.00 284.00
C 428.00 284.00 432.00 284.00 436.00 284.00 Z"/>
</g>
<g fill="None" fill-opacity="0.0" stroke="#262626" stroke-opacity="0.78" stroke-width="0.3"><path d="
M 238.00 313.00 
C 240.33 296.57 238.34 278.18 239.00 261.00
C 236.67 277.34 238.67 295.83 238.00 313.00 Z"/>
</g>
<g fill="None" fill-opacity="0.0" stroke="#272727" stroke-opacity="0.93" stroke-width="0.3"><path d="
M 238.00 313.00 
C 238.00 313.00 237.96 314.00 238.00 314.00
C 243.00 314.00 248.00 314.00 253.00 314.00
C 253.00 309.00 253.00 304.00 253.00 299.00
C 256.33 299.00 259.67 299.00 263.00 299.00
C 266.72 310.03 272.60 317.07 286.00 314.00
C 284.57 307.60 279.46 303.00 277.00 297.00
C 292.36 292.06 287.68 258.12 274.00 262.00
C 262.76 259.93 250.64 261.47 239.00 261.00
C 238.34 278.18 240.33 296.57 238.00 313.00
M 253.00 287.00 
C 253.23 281.38 251.52 277.39 253.00 272.00
C 259.47 273.12 272.99 268.00 271.00 279.00 C 273.40 290.09 259.61 286.48 253.00 287.00 Z"/>
</g>
<g fill="None" fill-opacity="0.0" stroke="#262626" stroke-opacity="0.92" stroke-width="0.3"><path d="
M 369.00 261.00 
C 364.00 261.00 359.00 261.00 354.00 261.00
C 355.85 270.30 354.43 280.67 355.00 291.00 C 355.96 300.39 350.09 318.64 366.00 314.00 C 375.75 313.12 387.15 316.69 393.69 309.69 C 397.83 300.67 396.21 288.70 394.92 279.08 C 390.97 268.69 377.54 272.61 369.00 273.00
C 369.00 269.00 369.00 265.00 369.00 261.00
M 381.00 303.00 
C 377.00 303.00 373.00 303.00 369.00 303.00
C 369.00 296.67 369.00 290.33 369.00 284.00
C 373.01 285.07 381.13 281.34 381.97 287.03 C 382.47 292.54 380.23 297.40 381.00 303.00 Z"/>
</g>
<g fill="None" fill-opacity="0.0" stroke="#000000" stroke-opacity="0.00" stroke-width="0.3"><path d="
M 253.00 287.00 
C 259.61 286.48 273.40 290.09 271.00 279.00 C 272.99 268.00 259.47 273.12 253.00 272.00
C 251.52 277.39 253.23 281.38 253.00 287.00 Z"/>
</g>
<g fill="None" fill-opacity="0.0" stroke="#282828" stroke-opacity="0.91" stroke-width="0.3"><path d="
M 309.00 272.00 
C 293.92 275.18 297.72 294.67 299.03 305.97 C 304.58 318.46 322.39 315.69 333.75 313.75 C 345.83 308.95 340.03 290.99 340.30 279.70 C 334.58 267.82 318.98 273.54 309.00 272.00
M 327.00 303.00 
C 321.70 304.33 310.52 306.18 313.00 297.00 C 311.64 289.15 313.00 280.89 323.00 284.00 C 330.92 285.03 325.32 297.24 327.00 303.00 Z"/>
</g>
<g fill="None" fill-opacity="0.0" stroke="#262626" stroke-opacity="0.90" stroke-width="0.3"><path d="
M 464.00 282.00 
C 465.64 288.26 465.69 297.81 464.00 304.00
C 464.97 314.46 473.17 315.69 482.00 315.00 C 490.97 314.27 506.39 317.15 502.00 303.00
C 494.56 300.48 480.73 309.15 478.00 300.00
C 486.67 300.00 495.33 300.00 504.00 300.00
C 504.01 289.64 506.68 273.48 493.00 272.00 C 482.88 272.55 466.01 268.37 464.00 282.00
M 489.00 289.00 
C 485.33 289.00 481.67 289.00 478.00 289.00
C 474.71 280.48 492.27 280.44 489.00 289.00 Z"/>
</g>
<g fill="None" fill-opacity="0.0" stroke="#262626" stroke-opacity="0.87" stroke-width="0.3"><path d="
M 548.00 272.00 
C 541.30 272.24 536.79 273.18 531.00 277.00
C 530.55 270.06 521.65 274.04 517.00 273.00
C 517.00 286.67 517.00 300.33 517.00 314.00
C 522.00 314.00 527.00 314.00 532.00 314.00
C 532.00 305.00 532.00 296.00 532.00 287.00
C 536.54 285.77 540.95 284.54 545.92 284.92 C 550.16 282.66 547.05 276.05 548.00 272.00 Z"/>
</g>
<g fill="None" fill-opacity="0.0" stroke="#282828" stroke-opacity="0.54" stroke-width="0.3"><path d="
M 464.00 304.00 
C 465.69 297.81 465.64 288.26 464.00 282.00
C 462.31 288.19 462.36 297.74 464.00 304.00 Z"/>
</g>
<g fill="None" fill-opacity="0.0" stroke="#000000" stroke-opacity="0.00" stroke-width="0.3"><path d="
M 489.00 289.00 
C 492.27 280.44 474.71 280.48 478.00 289.00
C 481.67 289.00 485.33 289.00 489.00 289.00 Z"/>
</g>
<g fill="None" fill-opacity="0.0" stroke="#000000" stroke-opacity="0.00" stroke-width="0.3"><path d="
M 327.00 303.00 
C 325.32 297.24 330.92 285.03 323.00 284.00 C 313.00 280.89 311.64 289.15 313.00 297.00 C 310.52 306.18 321.70 304.33 327.00 303.00 Z"/>
</g>
<g fill="None" fill-opacity="0.0" stroke="#000000" stroke-opacity="0.00" stroke-width="0.3"><path d="
M 381.00 303.00 
C 380.23 297.40 382.47 292.54 381.97 287.03 C 381.13 281.34 373.01 285.07 369.00 284.00
C 369.00 290.33 369.00 296.67 369.00 303.00
C 373.00 303.00 377.00 303.00 381.00 303.00 Z"/>
</g>
<g fill="None" fill-opacity="0.0" stroke="#000000" stroke-opacity="0.00" stroke-width="0.3"><path d="
M 436.00 284.00 
C 432.00 284.00 428.00 284.00 424.00 284.00
C 424.00 290.33 424.00 296.67 424.00 303.00
C 438.37 307.54 436.55 293.75 436.00 284.00 Z"/>
</g>
<g fill="#000000" fill-opacity="0.00" stroke="None">
<path d="
M 0.00 388.00 
L 642.00 388.00
L 642.00 0.00
L 0.00 0.00
L 0.00 388.00
M 400.00 71.00 
C 400.00 108.00 400.00 145.00 400.00 182.00 C 407.90 215.87 377.75 245.28 344.00 237.00 C 307.00 237.00 270.00 237.00 233.00 237.00
C 233.00 209.33 233.00 181.67 233.00 154.00 C 235.39 130.04 225.65 100.92 244.75 82.75 C 262.66 63.17 292.12 73.65 316.00 71.00 C 344.00 71.00 372.00 71.00 400.00 71.00
M 101.00 260.00 
C 104.68 272.09 110.13 283.63 113.00 296.00
C 117.54 284.41 121.75 271.99 126.00 260.00
C 131.33 260.00 136.67 260.00 142.00 260.00
C 136.34 276.87 127.60 296.24 122.00 314.00
C 116.33 314.00 110.67 314.00 105.00 314.00
C 98.99 296.13 91.61 278.68 85.00 261.00
C 89.85 258.85 95.73 260.54 101.00 260.00
M 195.00 260.00 
C 202.25 278.49 177.53 270.32 167.00 272.00
C 167.00 275.67 167.00 279.33 167.00 283.00
C 174.33 283.00 181.67 283.00 189.00 283.00
C 189.00 287.00 189.00 291.00 189.00 295.00
C 181.67 295.00 174.33 295.00 167.00 295.00
C 167.00 301.33 167.00 307.67 167.00 314.00
C 162.00 314.00 157.00 314.00 152.00 314.00
C 152.00 303.33 152.00 292.67 152.00 282.00 C 153.10 273.35 147.13 255.88 162.00 260.00 C 173.00 260.00 184.00 260.00 195.00 260.00
M 274.00 262.00 
C 287.68 258.12 292.36 292.06 277.00 297.00
C 279.46 303.00 284.57 307.60 286.00 314.00
C 272.60 317.07 266.72 310.03 263.00 299.00
C 259.67 299.00 256.33 299.00 253.00 299.00
C 253.00 304.00 253.00 309.00 253.00 314.00
C 248.00 314.00 243.00 314.00 238.00 314.00
C 235.69 304.91 237.65 293.84 237.00 284.00 C 239.20 276.37 231.25 258.43 244.00 260.00 C 253.52 261.29 266.90 257.38 274.00 262.00
M 424.00 274.00 
C 431.18 272.48 440.47 269.63 446.75 275.25 C 453.41 286.35 455.85 311.07 439.98 313.98 C 430.32 314.03 420.66 313.98 411.00 314.00 C 406.87 298.20 409.28 277.73 409.78 260.78 C 420.38 256.19 427.28 262.95 424.00 274.00
M 369.00 261.00 
C 369.00 265.00 369.00 269.00 369.00 273.00
C 377.54 272.61 390.97 268.69 394.92 279.08 C 396.21 288.70 397.83 300.67 393.69 309.69 C 387.15 316.69 375.75 313.12 366.00 314.00 C 350.09 318.64 355.96 300.39 355.00 291.00 C 354.43 280.67 355.85 270.30 354.00 261.00
C 359.00 261.00 364.00 261.00 369.00 261.00
M 309.00 272.00 
C 318.98 273.54 334.58 267.82 340.30 279.70 C 340.03 290.99 345.83 308.95 333.75 313.75 C 322.39 315.69 304.58 318.46 299.03 305.97 C 297.72 294.67 293.92 275.18 309.00 272.00
M 464.00 304.00 
C 462.36 297.74 462.31 288.19 464.00 282.00
C 466.01 268.37 482.88 272.55 493.00 272.00 C 506.68 273.48 504.01 289.64 504.00 300.00
C 495.33 300.00 486.67 300.00 478.00 300.00
C 480.73 309.15 494.56 300.48 502.00 303.00
C 506.39 317.15 490.97 314.27 482.00 315.00 C 473.17 315.69 464.97 314.46 464.00 304.00
M 548.00 272.00 
C 547.05 276.05 550.16 282.66 545.92 284.92 C 540.95 284.54 536.54 285.77 532.00 287.00
C 532.00 296.00 532.00 305.00 532.00 314.00
C 527.00 314.00 522.00 314.00 517.00 314.00
C 517.00 300.33 517.00 286.67 517.00 273.00
C 521.65 274.04 530.55 270.06 531.00 277.00
C 536.79 273.18 541.30 272.24 548.00 272.00 Z"/>
</g>
<g fill="#9F2022" fill-opacity="0.96" stroke="None">
<path d="
M 400.00 71.00 
C 372.00 71.00 344.00 71.00 316.00 71.00 C 292.12 73.65 262.66 63.17 244.75 82.75 C 225.65 100.92 235.39 130.04 233.00 154.00 C 233.00 181.67 233.00 209.33 233.00 237.00
C 270.00 237.00 307.00 237.00 344.00 237.00 C 377.75 245.28 407.90 215.87 400.00 182.00 C 400.00 145.00 400.00 108.00 400.00 71.00
M 287.00 122.00 
C 288.39 122.74 288.65 126.32 287.00 127.00
C 286.47 131.32 288.19 135.00 289.00 139.00
C 306.00 135.88 325.31 136.34 341.08 142.92 C 352.64 155.90 349.89 176.11 347.01 192.01 C 340.73 210.28 316.83 205.91 301.00 207.00 C 283.75 207.71 265.47 200.21 267.00 180.00
C 265.90 179.97 266.19 178.66 266.00 178.00
C 264.41 174.40 264.29 167.53 266.00 164.00
C 266.22 163.70 266.90 163.26 267.00 163.00
C 268.16 154.05 270.47 142.13 281.00 140.00
C 271.37 120.17 287.23 100.61 308.00 102.00 C 317.61 101.50 325.29 108.22 327.97 117.03 C 323.40 129.92 317.84 108.63 309.98 110.02 C 301.43 110.10 289.29 112.52 287.00 122.00
M 346.00 102.00 
C 352.79 105.78 345.15 116.95 339.99 117.99 C 333.10 114.80 340.60 103.58 346.00 102.00
M 357.00 116.00 
C 365.16 121.37 352.95 127.51 347.93 128.93 C 339.31 124.01 351.51 116.93 357.00 116.00
M 365.00 133.00 
C 371.48 140.85 357.71 142.33 352.33 140.67 C 344.52 132.21 359.24 132.17 365.00 133.00 Z"/>
</g>
<g fill="#000000" fill-opacity="0.00" stroke="None">
<path d="
M 267.00 163.00 
C 266.44 165.52 268.19 169.30 266.00 171.00
C 266.00 171.50 266.00 172.50 266.00 173.00
C 267.96 174.45 266.56 177.80 267.00 180.00
C 265.47 200.21 283.75 207.71 301.00 207.00 C 316.83 205.91 340.73 210.28 347.01 192.01 C 349.89 176.11 352.64 155.90 341.08 142.92 C 325.31 136.34 306.00 135.88 289.00 139.00
C 288.19 135.00 286.47 131.32 287.00 127.00
C 285.61 126.26 285.35 122.68 287.00 122.00
C 289.29 112.52 301.43 110.10 309.98 110.02 C 317.84 108.63 323.40 129.92 327.97 117.03 C 325.29 108.22 317.61 101.50 308.00 102.00 C 287.23 100.61 271.37 120.17 281.00 140.00
C 270.47 142.13 268.16 154.05 267.00 163.00
M 313.00 176.00 
C 316.79 184.03 306.37 193.68 303.08 182.92 C 305.03 174.84 294.60 171.02 298.00 163.00 C 305.88 145.16 329.54 167.71 313.00 176.00 Z"/>
</g>
<g fill="#000000" fill-opacity="0.00" stroke="None">
<path d="
M 346.00 102.00 
C 340.60 103.58 333.10 114.80 339.99 117.99 C 345.15 116.95 352.79 105.78 346.00 102.00 Z"/>
</g>
<g fill="#000000" fill-opacity="0.00" stroke="None">
<path d="
M 357.00 116.00 
C 351.51 116.93 339.31 124.01 347.93 128.93 C 352.95 127.51 365.16 121.37 357.00 116.00 Z"/>
</g>
<g fill="#902328" fill-opacity="0.39" stroke="None">
<path d="
M 287.00 127.00 
C 288.65 126.32 288.39 122.74 287.00 122.00
C 285.35 122.68 285.61 126.26 287.00 127.00 Z"/>
</g>
<g fill="#000000" fill-opacity="0.00" stroke="None">
<path d="
M 365.00 133.00 
C 359.24 132.17 344.52 132.21 352.33 140.67 C 357.71 142.33 371.48 140.85 365.00 133.00 Z"/>
</g>
<g fill="#991F22" fill-opacity="0.87" stroke="None">
<path d="
M 313.00 176.00 
C 329.54 167.71 305.88 145.16 298.00 163.00 C 294.60 171.02 305.03 174.84 303.08 182.92 C 306.37 193.68 316.79 184.03 313.00 176.00 Z"/>
</g>
<g fill="#DEB0B0" fill-opacity="0.15" stroke="None">
<path d="
M 266.00 164.00 
C 266.00 166.33 266.00 168.67 266.00 171.00
C 268.19 169.30 266.44 165.52 267.00 163.00
C 266.90 163.26 266.22 163.70 266.00 164.00 Z"/>
</g>
<g fill="#812221" fill-opacity="0.80" stroke="None">
<path d="
M 266.00 178.00 
C 266.00 176.33 266.00 174.67 266.00 173.00
C 266.00 172.50 266.00 171.50 266.00 171.00
C 266.00 168.67 266.00 166.33 266.00 164.00
C 264.29 167.53 264.41 174.40 266.00 178.00 Z"/>
</g>
<g fill="#EEBFC4" fill-opacity="0.12" stroke="None">
<path d="
M 266.00 178.00 
C 266.19 178.66 265.90 179.97 267.00 180.00
C 266.56 177.80 267.96 174.45 266.00 173.00
C 266.00 174.67 266.00 176.33 266.00 178.00 Z"/>
</g>
<g fill="#262626" fill-opacity="0.89" stroke="None">
<path d="
M 101.00 260.00 
C 95.73 260.54 89.85 258.85 85.00 261.00
C 91.61 278.68 98.99 296.13 105.00 314.00
C 110.67 314.00 116.33 314.00 122.00 314.00
C 127.60 296.24 136.34 276.87 142.00 260.00
C 136.67 260.00 131.33 260.00 126.00 260.00
C 121.75 271.99 117.54 284.41 113.00 296.00
C 110.13 283.63 104.68 272.09 101.00 260.00 Z"/>
</g>
<g fill="#262626" fill-opacity="0.89" stroke="None">
<path d="
M 195.00 260.00 
C 184.00 260.00 173.00 260.00 162.00 260.00 C 147.13 255.88 153.10 273.35 152.00 282.00 C 152.00 292.67 152.00 303.33 152.00 314.00
C 157.00 314.00 162.00 314.00 167.00 314.00
C 167.00 307.67 167.00 301.33 167.00 295.00
C 174.33 295.00 181.67 295.00 189.00 295.00
C 189.00 291.00 189.00 287.00 189.00 283.00
C 181.67 283.00 174.33 283.00 167.00 283.00
C 167.00 279.33 167.00 275.67 167.00 272.00
C 177.53 270.32 202.25 278.49 195.00 260.00 Z"/>
</g>
<g fill="#212121" fill-opacity="0.15" stroke="None">
<path d="
M 238.00 314.00 
C 237.96 314.00 238.00 313.00 238.00 313.00
C 238.67 295.83 236.67 277.34 239.00 261.00
C 250.64 261.47 262.76 259.93 274.00 262.00
C 266.90 257.38 253.52 261.29 244.00 260.00 C 231.25 258.43 239.20 276.37 237.00 284.00 C 237.65 293.84 235.69 304.91 238.00 314.00 Z"/>
</g>
<g fill="#262626" fill-opacity="0.89" stroke="None">
<path d="
M 424.00 274.00 
C 427.28 262.95 420.38 256.19 409.78 260.78 C 409.28 277.73 406.87 298.20 411.00 314.00 C 420.66 313.98 430.32 314.03 439.98 313.98 C 455.85 311.07 453.41 286.35 446.75 275.25 C 440.47 269.63 431.18 272.48 424.00 274.00
M 436.00 284.00 
C 436.55 293.75 438.37 307.54 424.00 303.00
C 424.00 296.67 424.00 290.33 424.00 284.00
C 428.00 284.00 432.00 284.00 436.00 284.00 Z"/>
</g>
<g fill="#262626" fill-opacity="0.78" stroke="None">
<path d="
M 238.00 313.00 
C 240.33 296.57 238.34 278.18 239.00 261.00
C 236.67 277.34 238.67 295.83 238.00 313.00 Z"/>
</g>
<g fill="#272727" fill-opacity="0.93" stroke="None">
<path d="
M 238.00 313.00 
C 238.00 313.00 237.96 314.00 238.00 314.00
C 243.00 314.00 248.00 314.00 253.00 314.00
C 253.00 309.00 253.00 304.00 253.00 299.00
C 256.33 299.00 259.67 299.00 263.00 299.00
C 266.72 310.03 272.60 317.07 286.00 314.00
C 284.57 307.60 279.46 303.00 277.00 297.00
C 292.36 292.06 287.68 258.12 274.00 262.00
C 262.76 259.93 250.64 261.47 239.00 261.00
C 238.34 278.18 240.33 296.57 238.00 313.00
M 253.00 287.00 
C 253.23 281.38 251.52 277.39 253.00 272.00
C 259.47 273.12 272.99 268.00 271.00 279.00 C 273.40 290.09 259.61 286.48 253.00 287.00 Z"/>
</g>
<g fill="#262626" fill-opacity="0.92" stroke="None">
<path d="
M 369.00 261.00 
C 364.00 261.00 359.00 261.00 354.00 261.00
C 355.85 270.30 354.43 280.67 355.00 291.00 C 355.96 300.39 350.09 318.64 366.00 314.00 C 375.75 313.12 387.15 316.69 393.69 309.69 C 397.83 300.67 396.21 288.70 394.92 279.08 C 390.97 268.69 377.54 272.61 369.00 273.00
C 369.00 269.00 369.00 265.00 369.00 261.00
M 381.00 303.00 
C 377.00 303.00 373.00 303.00 369.00 303.00
C 369.00 296.67 369.00 290.33 369.00 284.00
C 373.01 285.07 381.13 281.34 381.97 287.03 C 382.47 292.54 380.23 297.40 381.00 303.00 Z"/>
</g>
<g fill="#000000" fill-opacity="0.00" stroke="None">
<path d="
M 253.00 287.00 
C 259.61 286.48 273.40 290.09 271.00 279.00 C 272.99 268.00 259.47 273.12 253.00 272.00
C 251.52 277.39 253.23 281.38 253.00 287.00 Z"/>
</g>
<g fill="#282828" fill-opacity="0.91" stroke="None">
<path d="
M 309.00 272.00 
C 293.92 275.18 297.72 294.67 299.03 305.97 C 304.58 318.46 322.39 315.69 333.75 313.75 C 345.83 308.95 340.03 290.99 340.30 279.70 C 334.58 267.82 318.98 273.54 309.00 272.00
M 327.00 303.00 
C 321.70 304.33 310.52 306.18 313.00 297.00 C 311.64 289.15 313.00 280.89 323.00 284.00 C 330.92 285.03 325.32 297.24 327.00 303.00 Z"/>
</g>
<g fill="#262626" fill-opacity="0.90" stroke="None">
<path d="
M 464.00 282.00 
C 465.64 288.26 465.69 297.81 464.00 304.00
C 464.97 314.46 473.17 315.69 482.00 315.00 C 490.97 314.27 506.39 317.15 502.00 303.00
C 494.56 300.48 480.73 309.15 478.00 300.00
C 486.67 300.00 495.33 300.00 504.00 300.00
C 504.01 289.64 506.68 273.48 493.00 272.00 C 482.88 272.55 466.01 268.37 464.00 282.00
M 489.00 289.00 
C 485.33 289.00 481.67 289.00 478.00 289.00
C 474.71 280.48 492.27 280.44 489.00 289.00 Z"/>
</g>
<g fill="#262626" fill-opacity="0.87" stroke="None">
<path d="
M 548.00 272.00 
C 541.30 272.24 536.79 273.18 531.00 277.00
C 530.55 270.06 521.65 274.04 517.00 273.00
C 517.00 286.67 517.00 300.33 517.00 314.00
C 522.00 314.00 527.00 314.00 532.00 314.00
C 532.00 305.00 532.00 296.00 532.00 287.00
C 536.54 285.77 540.95 284.54 545.92 284.92 C 550.16 282.66 547.05 276.05 548.00 272.00 Z"/>
</g>
<g fill="#282828" fill-opacity="0.54" stroke="None">
<path d="
M 464.00 304.00 
C 465.69 297.81 465.64 288.26 464.00 282.00
C 462.31 288.19 462.36 297.74 464.00 304.00 Z"/>
</g>
<g fill="#000000" fill-opacity="0.00" stroke="None">
<path d="
M 489.00 289.00 
C 492.27 280.44 474.71 280.48 478.00 289.00
C 481.67 289.00 485.33 289.00 489.00 289.00 Z"/>
</g>
<g fill="#000000" fill-opacity="0.00" stroke="None">
<path d="
M 327.00 303.00 
C 325.32 297.24 330.92 285.03 323.00 284.00 C 313.00 280.89 311.64 289.15 313.00 297.00 C 310.52 306.18 321.70 304.33 327.00 303.00 Z"/>
</g>
<g fill="#000000" fill-opacity="0.00" stroke="None">
<path d="
M 381.00 303.00 
C 380.23 297.40 382.47 292.54 381.97 287.03 C 381.13 281.34 373.01 285.07 369.00 284.00
C 369.00 290.33 369.00 296.67 369.00 303.00
C 373.00 303.00 377.00 303.00 381.00 303.00 Z"/>
</g>
<g fill="#000000" fill-opacity="0.00" stroke="None">
<path d="
M 436.00 284.00 
C 432.00 284.00 428.00 284.00 424.00 284.00
C 424.00 290.33 424.00 296.67 424.00 303.00
C 438.37 307.54 436.55 293.75 436.00 284.00 Z"/>
</g>
</svg>